<svg xmlns="http://www.w3.org/2000/svg" version="1.1" xmlns:xlink="http://www.w3.org/1999/xlink" width="512" height="512" x="0" y="0" viewBox="0 0 1.707 1.707" style="enable-background:new 0 0 512 512" xml:space="preserve" fill-rule="evenodd" class=""><g><path d="M1.554.623h-.312A.04.04 0 0 1 1.204.57L1.36.083a.04.04 0 0 1 .076 0l.155.483a.04.04 0 0 1-.036.057zm-.257-.08H1.5L1.398.227zM.943 1.651H.04a.04.04 0 0 1-.04-.04V.83a.04.04 0 0 1 .08 0v.742h.823v-.89H.08v.021a.04.04 0 1 1-.08 0v-.06a.04.04 0 0 1 .04-.04h.903a.04.04 0 0 1 .04.04v.97a.04.04 0 0 1-.04.04z" fill="#ffffff" opacity="1" data-original="#000000" class=""></path><path d="M.768.681H.215a.04.04 0 0 1-.04-.04V.362a.04.04 0 0 1 .04-.04h.553a.04.04 0 0 1 .04.04v.28a.04.04 0 0 1-.04.04zM.255.601h.473V.402H.255zM.492 1.49A.252.252 0 0 1 .24 1.24c0-.076.082-.225.175-.383L.456.783a.04.04 0 0 1 .07 0L.57.856c.092.158.175.307.175.383a.252.252 0 0 1-.252.252zm0-.607L.484.896C.426.995.32 1.178.32 1.24a.172.172 0 0 0 .344 0c0-.061-.107-.244-.165-.343A4.904 4.904 0 0 1 .492.883zM1.667 1.651h-.06a.04.04 0 1 1 0-.08h.02V.623h-.458v.948h.305a.04.04 0 1 1 0 .08h-.345a.04.04 0 0 1-.04-.04V.583a.04.04 0 0 1 .04-.04h.538a.04.04 0 0 1 .04.04V1.61a.04.04 0 0 1-.04.04z" fill="#fff" opacity="1" data-original="#000000" class=""></path><path d="M1.398 1.283a.145.145 0 0 1-.145-.144c0-.043.039-.113.09-.2l.02-.035a.04.04 0 0 1 .07 0l.02.035c.051.087.09.157.09.2 0 .08-.065.144-.145.144zm0-.28a.589.589 0 0 0-.065.136.065.065 0 0 0 .13 0 .588.588 0 0 0-.065-.136zM1.66.806h-.523a.04.04 0 1 1 0-.08h.522a.04.04 0 1 1 0 .08zM1.66 1.44h-.523a.04.04 0 1 1 0-.08h.522a.04.04 0 1 1 0 .08z" fill="#fff" opacity="1" data-original="#000000" class=""></path></g></svg>
