<svg xmlns="http://www.w3.org/2000/svg" version="1.1" xmlns:xlink="http://www.w3.org/1999/xlink" width="512" height="512" x="0" y="0" viewBox="0 0 682.667 682.667" style="enable-background:new 0 0 512 512" xml:space="preserve" class=""><g><defs><clipPath id="a" clipPathUnits="userSpaceOnUse"><path d="M0 512h512V0H0Z" fill="#ffffff" opacity="1" data-original="#000000"></path></clipPath></defs><g clip-path="url(#a)" transform="matrix(1.33333 0 0 -1.33333 0 682.667)"><path d="m0 0-1.801-4.295a20.606 20.606 0 0 0-6.531-8.439L-39.644-36.55c-3.927-2.988-5.202-8.341-3.007-12.761 2.385-4.806 6.277-11.226 12.296-17.668a3.01 3.01 0 0 1 3.798-.501L-4.14-53.432l1.102-30.404a2.981 2.981 0 0 1 1.885-2.678c22.197-8.592 41.156-5.038 51.332-1.708 4.689 1.534 7.613 6.196 6.989 11.091l-4.271 33.532c-.457 3.59.04 7.237 1.438 10.574l2.75 6.56" style="stroke-width:15;stroke-linecap:round;stroke-linejoin:round;stroke-miterlimit:10;stroke-dasharray:none;stroke-opacity:1" transform="translate(62.384 100.298)" fill="none" stroke="#ffffff" stroke-width="15" stroke-linecap="round" stroke-linejoin="round" stroke-miterlimit="10" stroke-dasharray="none" stroke-opacity="" data-original="#000000" opacity="1"></path><path d="M0 0v17.523c0 25.049 20.306 45.355 45.354 45.355h130.332V45.355C175.686 20.306 155.379 0 130.33 0h-17.508" style="stroke-width:15;stroke-linecap:round;stroke-linejoin:round;stroke-miterlimit:10;stroke-dasharray:none;stroke-opacity:1" transform="translate(266.516 378.452)" fill="none" stroke="#ffffff" stroke-width="15" stroke-linecap="round" stroke-linejoin="round" stroke-miterlimit="10" stroke-dasharray="none" stroke-opacity="" data-original="#000000" opacity="1"></path><path d="M0 0h56.062v-17.523c0-25.049-20.306-45.355-45.355-45.355h-130.331v17.524C-119.624-20.306-99.317 0-74.269 0h38.743" style="stroke-width:15;stroke-linecap:round;stroke-linejoin:round;stroke-miterlimit:10;stroke-dasharray:none;stroke-opacity:1" transform="translate(323.276 378.467)" fill="none" stroke="#ffffff" stroke-width="15" stroke-linecap="round" stroke-linejoin="round" stroke-miterlimit="10" stroke-dasharray="none" stroke-opacity="" data-original="#000000" opacity="1"></path><path d="M0 0h-130.331v17.523c0 25.049 20.306 45.355 45.354 45.355H38.701a6.652 6.652 0 0 0 6.653-6.653v-10.87C45.354 20.306 25.049 0 0 0Z" style="stroke-width:15;stroke-linecap:round;stroke-linejoin:round;stroke-miterlimit:10;stroke-dasharray:none;stroke-opacity:1" transform="translate(460.083 441.315)" fill="none" stroke="#ffffff" stroke-width="15" stroke-linecap="round" stroke-linejoin="round" stroke-miterlimit="10" stroke-dasharray="none" stroke-opacity="" data-original="#000000" opacity="1"></path><path d="M0 0v5.927c0 2.4 1.117 4.02 2.053 4.957.936.936 2.556 2.052 4.957 2.052l69.979.001c25.049 0 45.355 20.306 45.356 45.354v17.523H7.011c-18.668.001-36.219-7.269-49.419-20.469-13.2-13.2-20.47-30.751-20.47-49.419v-9.192" style="stroke-width:15;stroke-linecap:round;stroke-linejoin:round;stroke-miterlimit:10;stroke-dasharray:none;stroke-opacity:1" transform="translate(193.932 239.875)" fill="none" stroke="#ffffff" stroke-width="15" stroke-linecap="round" stroke-linejoin="round" stroke-miterlimit="10" stroke-dasharray="none" stroke-opacity="" data-original="#000000" opacity="1"></path><path d="M0 0c7.274 3.47 12.825 7.542 16.618 10.823 3.732 3.228 4.626 8.657 2.158 12.931L1.875 53.028A20.61 20.61 0 0 0-.887 63.336v39.577" style="stroke-width:15;stroke-linecap:round;stroke-linejoin:round;stroke-miterlimit:10;stroke-dasharray:none;stroke-opacity:1" transform="translate(194.818 69.447)" fill="none" stroke="#ffffff" stroke-width="15" stroke-linecap="round" stroke-linejoin="round" stroke-miterlimit="10" stroke-dasharray="none" stroke-opacity="" data-original="#000000" opacity="1"></path><path d="M0 0v-31.056c0-3.618-.952-7.173-2.762-10.308l-19.67-34.069c-2.467-4.274-1.573-9.703 2.159-12.931 8.359-7.231 25.254-18.305 50.328-18.305" style="stroke-width:15;stroke-linecap:round;stroke-linejoin:round;stroke-miterlimit:10;stroke-dasharray:none;stroke-opacity:1" transform="translate(131.054 168.634)" fill="none" stroke="#ffffff" stroke-width="15" stroke-linecap="round" stroke-linejoin="round" stroke-miterlimit="10" stroke-dasharray="none" stroke-opacity="" data-original="#000000" opacity="1"></path><path d="M0 0c-27.215-1.151-52.635-12.296-72.015-31.676l-9.969-9.97a20.623 20.623 0 0 0-9.243-5.335l-35.208-9.434c-4.834-1.295-8.095-5.833-7.724-10.824.228-3.085.72-6.846 1.69-11.048a3.005 3.005 0 0 1 3.214-2.305l19.51 1.88-10.784-23.667a2.98 2.98 0 0 1 .266-2.963 81.096 81.096 0 0 1 8.738-10.305c17.662-17.662 37.356-21.814 48.405-22.634 4.992-.371 9.531 2.889 10.827 7.725l9.434 35.206a20.617 20.617 0 0 0 5.336 9.243l9.97 9.97c8.614 8.614 20.067 13.357 32.247 13.358l38.117-.001c44.124.001 80.022 35.899 80.023 80.023l-62.879.002c0-9.454-7.691-17.146-17.144-17.146h-7.953" style="stroke-width:15;stroke-linecap:round;stroke-linejoin:round;stroke-miterlimit:10;stroke-dasharray:none;stroke-opacity:1" transform="translate(141.517 235.56)" fill="none" stroke="#ffffff" stroke-width="15" stroke-linecap="round" stroke-linejoin="round" stroke-miterlimit="10" stroke-dasharray="none" stroke-opacity="" data-original="#000000" opacity="1"></path></g></g></svg>
