<svg xmlns="http://www.w3.org/2000/svg" version="1.1" xmlns:xlink="http://www.w3.org/1999/xlink" width="512" height="512" x="0" y="0" viewBox="0 0 300 300" style="enable-background:new 0 0 512 512" xml:space="preserve" class=""><g><path d="M218.797 73.596a4 4 0 0 0 4-4v-8a4 4 0 0 0-8 0v8a4 4 0 0 0 4 4zM218.797 81.596a4 4 0 0 0-4 4v8a4 4 0 0 0 8 0v-8a4 4 0 0 0-4-4zM202.797 81.596h8a4 4 0 0 0 0-8h-8a4 4 0 0 0 0 8zM226.797 81.596h8a4 4 0 0 0 0-8h-8a4 4 0 0 0 0 8zM174.807 38.033a4.276 4.276 0 1 0 0-8.553 4.276 4.276 0 0 0 0 8.553zM62.807 229.48a4.276 4.276 0 1 0 0 8.552 4.276 4.276 0 0 0 0-8.552zM104.797 181.596c-7.719 0-14 6.281-14 14s6.281 14 14 14 14-6.281 14-14-6.282-14-14-14zm0 20c-3.308 0-6-2.692-6-6s2.692-6 6-6 6 2.692 6 6c0 3.309-2.692 6-6 6zM264.25 211.262c-2.514-7.486-9.797-12.518-18.125-12.518h-12.029c-15.305 0-25.586-14.871-25.604-28.396l4.668-50.923c.077-.426.084-.803.084-1.094 0-2.16 0-8.734-31.222-8.734-31.225 0-31.225 6.574-31.225 8.734l.01 23.625c-19.958 1.388-20.01 6.514-20.01 8.375v24.088c0 17.443 2.236 30.365 6.838 39.506.972 1.928 1.385 4.084 1.228 6.408-.133 1.953-.916 4.035-2.465 6.553-5.545 9.01-.603 23.704.808 27.454v11.989a4 4 0 0 0 4 4s34.744.192 41.582.192c19.092 0 48.809-.946 57.244-6.553 2.946-1.956 4.435-5.356 4.03-8.802.045-.104.118-.189.155-.298 1.303-3.883 1.312-7.787.031-11.606-.82-2.441-2.187-4.586-3.892-6.415 14.658-1.59 18.204-3.902 19.677-4.88a9.278 9.278 0 0 0 4.119-6.822 9.205 9.205 0 0 0-.035-2.087c.027-.068.076-.12.1-.19 1.304-3.883 1.314-7.787.033-11.606zm-53.877 19.144c-4.045-.667-7.664-2.376-10.734-4.81h55.453c-2.512 1.304-11.883 4.312-44.719 4.81zm23.722-23.661h12.029c4.811 0 9.145 2.904 10.541 7.064.348 1.033.483 2.062.492 3.096-.378.157-.716.414-1.041.692h-63.351a31.638 31.638 0 0 1-1.93-3.924c.092-.14.203-.28.292-.42 3.627-5.684 5.545-12.563 5.545-19.897v-8.74c0-3.911 1.58-7.12 4.27-9.157 2.505 17.435 16.648 31.286 33.153 31.286zm-52.074-89.149c5.717 0 10.519.305 14.308.734-3.789.43-8.592.734-14.308.734s-10.52-.305-14.309-.734c3.79-.429 8.593-.734 14.309-.734zm-23.222 7.366c4.595 1.22 11.806 2.103 23.222 2.103 10.925 0 17.97-.813 22.587-1.952l-3.778 41.358c-4.334 1.626-7.744 4.592-9.828 8.484l2.157-23.53c.077-.426.084-.803.084-1.094 0-2.16 0-8.734-31.222-8.734-1.141 0-2.155.026-3.214.044zm3.222 24.634c5.717 0 10.519.305 14.308.734-3.789.43-8.592.734-14.308.734s-10.52-.305-14.309-.734c3.79-.429 8.593-.734 14.309-.734zm-23.224 24.823v-17.458c4.594 1.221 11.807 2.104 23.225 2.104 10.925 0 17.97-.813 22.587-1.952l-3.778 41.358c-7.464 2.8-12.157 9.628-12.157 18.144v8.74c0 5.805-1.482 11.198-4.289 15.592-1.83 2.87-5.652 6.758-10.452 8.648h-9.905c-1.609-5.039-3.59-14.01-.816-18.518 2.256-3.666 3.412-6.91 3.633-10.207.256-3.773-.439-7.322-2.064-10.547-4.027-7.994-5.984-19.738-5.984-35.904zm29.142 87.91h-22.732v-4.732h9.577l.013.002.011-.002h80.213c-8.342 4.536-45.165 5.334-67.082 4.732zm46.156-23.584h12.029c4.811 0 9.145 2.904 10.541 7.064a9.793 9.793 0 0 1 .518 3.787h-69.507c1.397-1.479 2.578-2.972 3.452-4.344 3.627-5.684 5.545-12.563 5.545-19.897v-8.74c0-3.911 1.58-7.12 4.27-9.157 2.164 15.066 13.008 27.453 26.575 30.54.528.256 1.1.43 1.724.43h.055c.225-.003.416-.009.639-.012 1.368.195 2.751.329 4.159.329z" fill="#71090f" opacity="1" data-original="#000000" class=""></path><path d="M114.797 159.729v-10.631c16.12-2.702 28-16.533 28-33.152V75.143c0-25.115-20.432-45.547-45.547-45.547H80.343c-25.115 0-45.547 20.432-45.547 45.547v40.803c0 16.642 11.872 30.456 28 33.155v10.628c0 9.156 19.9 9.867 26 9.867s26.001-.711 26.001-9.867zm-39.653-38.133h27.305l-1.161 13.874a82.643 82.643 0 0 0-24.983 0zm31.653-8H64.762a5.972 5.972 0 0 1-5.965-5.965V91.249c0-7.527 6.125-13.652 13.652-13.652h32.695c7.528 0 13.652 6.125 13.652 13.652v16.383a5.972 5.972 0 0 1-5.965 5.965h-6.034zm-36 31.082c11.961-2.906 24.039-2.906 36 0v7.441c-6.254-2.002-14.453-2.255-18-2.255s-11.746.254-18 2.255zm-28-28.732V75.143c0-20.703 16.844-37.547 37.547-37.547H97.25c20.703 0 37.547 16.844 37.547 37.547v40.803c0 12.241-8.453 22.492-20.102 25.03-.243-1.517-1.292-2.8-2.808-3.228-.9-.255-1.803-.444-2.705-.67l1.294-15.483h2.356c7.701 0 13.965-6.264 13.965-13.965V91.249c0-11.94-9.713-21.652-21.652-21.652H72.449c-11.94 0-21.652 9.713-21.652 21.652v16.383c0 7.701 6.264 13.965 13.965 13.965h2.356l1.294 15.483c-.902.225-1.804.414-2.705.669-1.515.428-2.564 1.71-2.808 3.226-11.655-2.534-20.102-12.771-20.102-25.029zm46 45.65c-7.184 0-12.492-.924-15.56-1.867 3.068-.943 8.377-1.865 15.56-1.865s12.492.922 15.56 1.865c-3.068.943-8.377 1.867-15.56 1.867z" fill="#71090f" opacity="1" data-original="#000000" class=""></path></g></svg>
