<svg xmlns="http://www.w3.org/2000/svg" version="1.1" xmlns:xlink="http://www.w3.org/1999/xlink" width="512" height="512" x="0" y="0" viewBox="0 0 16.933 16.933" style="enable-background:new 0 0 512 512" xml:space="preserve"><g><path d="m4.246.709-.529 1.588a.265.265 0 0 0 .065.271l.45.452v2.27H2.647c0-.58-.477-1.057-1.059-1.057-.581 0-1.058.477-1.058 1.058V9.79c-.005.358.534.358.53 0V5.291c0-.297.23-.529.528-.529.298 0 .53.232.53.53v5.291H.794a.265.265 0 0 0-.265.265v4.497c0 .582.477 1.059 1.058 1.059h13.759c.582 0 1.058-.477 1.058-1.059v-.793c.005-.358-.534-.358-.529 0v.793c0 .298-.231.53-.53.53H1.588a.522.522 0 0 1-.529-.53v-1.588h15.087c.114 0 .26-.09.26-.264V5.291c0-.581-.477-1.058-1.06-1.058-.58 0-1.057.476-1.057 1.058h-1.589v-.53a.265.265 0 0 0 .266-.263V2.91c0-.15.112-.263.264-.263.279 0 .552.2.76.437s.326.475.326.475c.124.251.504.161.502-.12V2.381c0-1.022-.83-1.852-1.852-1.852H11.1c-.125 0-.251.107-.251.276 0 .13-.13.253-.264.253a.264.264 0 0 1-.265-.263.265.265 0 0 0-.264-.266H8.983a.266.266 0 0 0-.252.264v2.646c0 .146.12.264.265.264l1.06-.002a.258.258 0 0 0 .262-.268c0-.152.14-.26.266-.26.141 0 .264.114.264.264v1.06c0 .146.118.264.263.264v.53H9.16l-.456-.912a.265.265 0 0 0-.472 0l-.457.912H5.82V3.02l.452-.452a.265.265 0 0 0 .064-.271L5.806.709a.265.265 0 0 0-.25-.18H4.486a.267.267 0 0 0-.239.18zm.442.35h.678l.418 1.25-.415.413a.265.265 0 0 0-.078.188v4.498h-.529V2.91a.265.265 0 0 0-.076-.188l-.414-.413zm5.896 1.588c-.36 0-.639.221-.75.527H9.26V1.058h.572c.111.307.41.53.752.53a.802.802 0 0 0 .75-.53h1.631c.738 0 1.322.585 1.323 1.323v.246c-.23-.24-.589-.51-1.06-.51a.797.797 0 0 0-.792.793v1.322h-1.059v-.821a.79.79 0 0 0-.793-.764zm1.057 2.115h.53v3.176h-.53zm3.705 0c.298 0 .529.232.529.53v5.291h-2.646V8.201a.265.265 0 0 0-.264-.263H12.7v-1.06h1.589V9.79c-.006.358.534.358.529 0V5.291c0-.297.231-.529.529-.529zm-6.879.326.366.732h-.731zm-5.821.732h1.587v.53H2.646zm3.174 0h1.69c-.035.067-.102.17-.102.266v.264H5.82zm3.603 0h1.688v.53H9.526v-.264c-.01-.124-.057-.174-.103-.266zm3.276 0h1.589v.53h-1.589zm-4.761.53h1.058v4.233H7.938zM3.703 9.525v1.058H2.646V6.879h1.587v.529h-.264a.265.265 0 0 0-.266.264v.795c0 .15.124.269.273.264a.26.26 0 0 1 .257.265c0 .144-.107.253-.258.26a.266.266 0 0 0-.272.27zm2.117-.529c0-.148.115-.262.262-.265a.264.264 0 0 0 .268-.264v-.795a.265.265 0 0 0-.264-.264H5.82v-.53h1.588v3.705H6.35V9.525a.266.266 0 0 0-.273-.269c-.147-.008-.257-.116-.257-.26zm3.706-2.117h1.585v1.059h-.263a.265.265 0 0 0-.264.263v2.382H9.526zM4.233 7.938H5.82v.308a.805.805 0 0 0-.529.75c0 .342.223.638.53.748v.839H4.232v-.84a.787.787 0 0 0 .529-.747.796.796 0 0 0-.53-.75zm6.878.529H12.7v2.116h-1.588zM1.058 11.112h1.279a.26.26 0 0 0 .088 0c4.5.018 8.964 0 13.45 0v2.116H1.058z" fill="#ffffff" opacity="1" data-original="#000000"></path></g></svg>
