<svg xmlns="http://www.w3.org/2000/svg" version="1.1" xmlns:xlink="http://www.w3.org/1999/xlink" width="512" height="512" x="0" y="0" viewBox="0 0 512 512" style="enable-background:new 0 0 512 512" xml:space="preserve" class=""><g><g data-name="Out line"><path d="M461.66 202.34a109.847 109.847 0 0 0-155.32 0l-180 180a20.277 20.277 0 0 1-30.24-26.92l2.24 2.24a8.015 8.015 0 0 0 11.32 0l24-24a8.015 8.015 0 0 0 0-11.32l-2.34-2.34 82.34-82.34a8.015 8.015 0 0 0 0-11.32l-2.34-2.34L224 211.32l2.34 2.34a8.015 8.015 0 0 0 11.32 0l23.08-23.08 46.84-23.42a8.007 8.007 0 0 0 2.08-12.82l-64-64a8.007 8.007 0 0 0-12.82 2.08l-23.42 46.84-23.08 23.08a8.015 8.015 0 0 0 0 11.32l2.34 2.34L176 188.68l-2.34-2.34a8.015 8.015 0 0 0-11.32 0l-15.54 15.54a31.977 31.977 0 0 0-31.96 6.12H72a24 24 0 0 0 0 48h20.68L80 268.68l-2.34-2.34a8.015 8.015 0 0 0-11.32 0l-24 24a8.015 8.015 0 0 0 0 11.32l2.36 2.36a92.858 92.858 0 0 0 132.96 129.64l176-176a31.593 31.593 0 0 1 44.68 44.68l-180 180 11.32 11.32 180-180a47.602 47.602 0 0 0-67.32-67.32l-176 176A76.845 76.845 0 0 1 56.03 315.35l28.71 28.71a36.284 36.284 0 0 0 52.92 49.6l180-180a93.819 93.819 0 1 1 132.68 132.68l-136 136 11.32 11.32 136-136a109.847 109.847 0 0 0 0-155.32zM242.19 109.5l48.31 48.31-32.92 16.46-31.85-31.85zM216 155.32 244.68 184 232 196.69 203.31 168zm-16 32L212.68 200 200 212.68 187.32 200zM72 240a8 8 0 0 1 0-16h46.12a7.968 7.968 0 0 0 5.96-2.67 16 16 0 1 1 0 21.34 7.968 7.968 0 0 0-5.96-2.67zm43.1 16.22a32.186 32.186 0 0 0 20.98 7.78 29.83 29.83 0 0 0 3.4-.19 31.982 31.982 0 0 0 20.74-52.71l7.78-7.79L196.69 232 120 308.68 91.32 280zM59.31 296 72 283.31 116.69 328 104 340.69zM281.437 30.478l7.997-11.204 13.023 9.295-7.997 11.204zM249.436 75.26l23.99-33.612 13.024 9.296-23.99 33.611zM309.464 50.815l28.429-31.982 11.952 10.624-28.429 31.982zM273.897 90.785l15.991-17.99L301.84 83.42l-15.99 17.99zM394.687 31.537l15.994-13.718 10.416 12.144-15.994 13.718zM338.714 79.54l31.988-27.437 10.416 12.144-31.988 27.438z" fill="#71090f" opacity="1" data-original="#000000"></path><path d="m298.734 113.824 18.66-16.005 10.417 12.144-18.66 16.005zM467.675 50.48l15.99-9.61 8.24 13.713-15.99 9.609zM419.712 79.292 443.7 64.878l8.24 13.713-23.986 14.414zM377.078 104.902l26.652-16.016 8.24 13.713-26.651 16.016zM323.786 136.915l39.978-24.024 8.24 13.713-39.977 24.024z" fill="#71090f" opacity="1" data-original="#000000"></path></g></g></svg>
