<svg xmlns="http://www.w3.org/2000/svg" version="1.1" xmlns:xlink="http://www.w3.org/1999/xlink" width="512" height="512" x="0" y="0" viewBox="0 0 512 512" style="enable-background:new 0 0 512 512" xml:space="preserve" class=""><g><path d="M430.671 443.19v45.78h-50.67V364.72h50.67v45.78M504.5 187.528l-36.744 9.186v-36.743l36.744 9.186z" style="stroke-width:15;stroke-linecap:round;stroke-linejoin:round;stroke-miterlimit:10;" fill="none" stroke="#71090f" stroke-width="15" stroke-linecap="round" stroke-linejoin="round" stroke-miterlimit="10" data-original="#000000" class="" opacity="1"></path><path d="M405.596 333.655v-94.124c0-12.267 4.777-23.8 13.452-32.475l28.714-28.714h19.995M369.935 333.655h70.795v31.062h-70.795zM280.17 55.997c4.09 2.64 8.17 5.45 12.25 8.41 16.12 11.69 25.7 30.37 25.7 50.27V395.97c0 51.36-41.63 93.001-93.001 93.001h-93.561c-51.36 0-93.001-41.64-93.001-93.001V114.678c0-19.9 9.59-38.58 25.7-50.27 62.45-45.3 124.901-53.4 187.351-24.32" style="stroke-width:15;stroke-linecap:round;stroke-linejoin:round;stroke-miterlimit:10;" fill="none" stroke="#71090f" stroke-width="15" stroke-linecap="round" stroke-linejoin="round" stroke-miterlimit="10" data-original="#000000" class="" opacity="1"></path><path d="M194.68 302.589h92.38V147.278H69.629v155.311h92.37M7.5 147.28h31.062v93.188H7.5zM318.125 147.28h31.062v93.188h-31.062z" style="stroke-width:15;stroke-linecap:round;stroke-linejoin:round;stroke-miterlimit:10;" fill="none" stroke="#71090f" stroke-width="15" stroke-linecap="round" stroke-linejoin="round" stroke-miterlimit="10" data-original="#000000" class="" opacity="1"></path><path d="M100.688 178.342H256v93.188H100.688zM178.344 364.717v93.188M147.281 380.249v62.125M209.406 380.249v62.125M116.219 395.78v31.062M240.469 395.78v31.062" style="stroke-width:15;stroke-linecap:round;stroke-linejoin:round;stroke-miterlimit:10;" fill="none" stroke="#71090f" stroke-width="15" stroke-linecap="round" stroke-linejoin="round" stroke-miterlimit="10" data-original="#000000" class="" opacity="1"></path></g></svg>
