<svg xmlns="http://www.w3.org/2000/svg" version="1.1" xmlns:xlink="http://www.w3.org/1999/xlink" width="512" height="512" x="0" y="0" viewBox="0 0 512 512" style="enable-background:new 0 0 512 512" xml:space="preserve"><g><path d="M475.431 44.848h-9.871V28.391C465.56 12.736 452.824 0 437.17 0H280.113c-4.142 0-7.5 3.357-7.5 7.5s3.358 7.5 7.5 7.5H437.17c7.383 0 13.39 6.007 13.39 13.391v47.913c0 7.384-6.007 13.391-13.39 13.391H197.818c11.966-3.165 20.817-14.109 20.817-27.09V15h31.032c4.142 0 7.5-3.357 7.5-7.5s-3.358-7.5-7.5-7.5H38.518C22.863 0 10.127 12.736 10.127 28.391v47.914c0 15.654 12.736 28.39 28.39 28.39h3.596c4.097 10.373 14.193 17.733 25.977 17.733s21.88-7.359 25.977-17.732h27.827v16.6c0 15.447 12.532 28.015 27.935 28.015s27.935-12.567 27.935-28.015v-16.6h259.405c15.654 0 28.39-12.736 28.39-28.391V59.848h9.871c6.31 0 11.443 5.166 11.443 11.517v69.576c0 5.611-4.358 10.274-9.921 10.616l-222.609 13.692c-13.458.828-24 12.067-24 25.589v34.663a7.5 7.5 0 0 0 7.5 7.5 7.5 7.5 0 0 0 7.5-7.5v-34.663c0-5.611 4.358-10.274 9.921-10.616l222.609-13.692c13.458-.828 24-12.067 24-25.589V71.364c.002-14.621-11.861-26.516-26.442-26.516zM40.156 89.694h-1.638c-7.384 0-13.391-6.006-13.391-13.389V28.391C25.127 21.007 31.134 15 38.518 15h1.638v74.694zm81.714 0H96.051c.264-6.945 5.944-12.517 12.91-12.517 7.133 0 12.935 5.839 12.935 13.016 0-.168-.019-.332-.026-.499zm55.895.001v-2.264a27.737 27.737 0 0 0 5.837 2.264h-5.837zm0-27.091a7.5 7.5 0 0 0-15 0v58.689c0 7.177-5.802 13.015-12.935 13.015-7.132 0-12.935-5.838-12.935-13.015v-31.1c0-15.448-12.532-28.016-27.935-28.016-15.403 0-27.934 12.568-27.934 28.016v4.219c0 7.177-5.803 13.015-12.935 13.015-7.132 0-12.935-5.838-12.935-13.015V15h148.479v47.604c0 7.177-5.803 13.015-12.935 13.015-7.132 0-12.935-5.838-12.935-13.015zM277.795 271.396h-32.452V256.17a7.5 7.5 0 0 0-7.5-7.5 7.5 7.5 0 0 0-7.5 7.5v15.226h-32.452c-7.51 0-13.62 6.11-13.62 13.62v18.377c0 7.51 6.11 13.62 13.62 13.62h5.055v180.784c0 7.832 6.372 14.203 14.203 14.203h41.388c7.832 0 14.203-6.371 14.203-14.203V317.013h5.055c7.51 0 13.62-6.11 13.62-13.62v-18.377c0-7.51-6.11-13.62-13.62-13.62zM257.741 497h-39.794v-23.496h39.794V497zm0-38.496h-39.794V431.34h39.794v27.164zm0-42.164h-39.794v-27.163h39.794v27.163zm0-42.163h-39.794v-27.164h39.794v27.164zm0-42.164h-39.794v-15h39.794v15zm18.675-30h-77.143v-15.617h77.143v15.617z" fill="#71090f" opacity="1" data-original="#000000"></path></g></svg>
