<svg xmlns="http://www.w3.org/2000/svg" version="1.1" xmlns:xlink="http://www.w3.org/1999/xlink" width="512" height="512" x="0" y="0" viewBox="0 0 512 512" style="enable-background:new 0 0 512 512" xml:space="preserve" class=""><g><path d="M309.328 141.754c-.055-.09-.11-.18-.168-.27a14.86 14.86 0 0 0-5.148-4.851V89.516h33.078v18.84c0 6.68 5.437 12.117 12.12 12.117h73.419c6.683 0 12.121-5.438 12.121-12.118v-8.84a7.5 7.5 0 1 0-15 0v5.958h-67.66V89.516h21.258c7.343 0 13.32-5.977 13.32-13.32V58.558h33.082v5.957a7.5 7.5 0 1 0 15 0v-8.84c0-6.68-5.438-12.117-12.121-12.117h-35.961V25.922c0-7.344-5.977-13.32-13.32-13.32h-69.336V7.5a7.5 7.5 0 1 0-15 0v129.313a14.837 14.837 0 0 0-5.157 5.187l-59.293 99.879-28.386-47.95-.164-.269c-5.563-8.555-18.207-8.332-23.438.477L2.027 481.449c-5.66 9.531 1.2 21.594 12.293 21.594h264.692a7.5 7.5 0 1 0 0-15H95.882c4.47-7.527 110.552-186.238 118.9-200.297l12 14.938c5.292 6.586 14.734 6.582 20.023 0l10.785-13.426 28.086 34.953c5.707 7.113 15.828 7.101 21.535 0l28.082-34.953 10.785 13.426c5.293 6.586 14.738 6.582 20.024 0l12.128-15.094 118.668 200.453H314.012a7.497 7.497 0 0 0-7.5 7.5 7.5 7.5 0 0 0 7.5 7.5h183.062c11.547 0 18.707-12.55 12.82-22.496zm-5.316-114.152h67.656v46.914h-67.656zM78.442 488.043H15.558L127.71 299.105l2.875 3.579c5.289 6.586 14.734 6.582 20.02 0l10.789-13.426 20.152 25.086c-4.442 7.488-97.344 163.988-103.106 173.699zm111.28-187.473-19.507-24.28c-4.535-5.645-13.113-5.638-17.64 0l-11.981 14.91-4.711-5.864 48.55-81.79 31.403 53.04zm166.368-9.375-11.977-14.906c-4.535-5.644-13.113-5.637-17.64 0l-30.032 37.375-30.027-37.375c-4.535-5.644-13.117-5.633-17.644 0l-11.977 14.91-13.836-17.222 73.707-124.168L370.066 273.8zm0 0" fill="#71090f" opacity="1" data-original="#000000"></path></g></svg>
