<svg xmlns="http://www.w3.org/2000/svg" version="1.1" xmlns:xlink="http://www.w3.org/1999/xlink" width="512" height="512" x="0" y="0" viewBox="0 0 64 64" style="enable-background:new 0 0 512 512" xml:space="preserve" class=""><g><path d="M41.26 8.19H29.35c-.73 0-1.32.59-1.32 1.32s.59 1.32 1.32 1.32h11.91c.73 0 1.32-.59 1.32-1.32s-.59-1.32-1.32-1.32zM41.26 16.13H9.51c-.73 0-1.32.59-1.32 1.32s.59 1.32 1.32 1.32h31.75c.73 0 1.32-.59 1.32-1.32s-.59-1.32-1.32-1.32zM41.26 24.06H9.51c-.73 0-1.32.59-1.32 1.32s.59 1.32 1.32 1.32h31.75c.73 0 1.32-.59 1.32-1.32s-.59-1.32-1.32-1.32zM42.58 33.32c0-.73-.59-1.32-1.32-1.32H9.51c-.73 0-1.32.59-1.32 1.32s.59 1.32 1.32 1.32h31.75c.73.01 1.32-.59 1.32-1.32zM17.83 46.94l-7 7-1.71-1.71c-.52-.52-1.35-.52-1.87 0s-.52 1.35 0 1.87l2.65 2.65c.26.26 1.05.74 1.87 0l7.94-7.94c.52-.52.52-1.35 0-1.87s-1.36-.52-1.88 0zM63.36 31.39l-5.61-5.61c-.52-.52-1.35-.52-1.87 0L31.55 50.09c-.2.2-.33.47-.37.75l-.94 6.55c-.06.41.1 1.38 1.31 1.51.06.01 6.74-.95 6.74-.95.28-.04.55-.17.75-.37l24.32-24.32c.75-.94.25-1.63 0-1.87zM37.48 55.4l-4.37.62.62-4.37L51.2 34.19l3.74 3.74zm19.33-19.34-3.74-3.74 3.74-3.74 3.74 3.74z" fill="#ffffff" opacity="1" data-original="#000000" class=""></path><path d="M49.19 50.84c-.73 0-1.32.59-1.32 1.32v4.97c0 2.19-1.78 3.97-3.97 3.97H6.86c-2.19 0-3.97-1.78-3.97-3.97V6.86c0-2.19 1.78-3.97 3.97-3.97H43.9c2.19 0 3.97 1.78 3.97 3.97v20.85c0 .73.59 1.32 1.32 1.32s1.32-.59 1.32-1.32V6.86c0-3.65-2.97-6.61-6.61-6.61H6.86C3.21.25.25 3.22.25 6.86v50.27c0 3.65 2.97 6.61 6.61 6.61H43.9c3.65 0 6.61-2.97 6.61-6.61v-4.97c.01-.73-.59-1.32-1.32-1.32z" fill="#ffffff" opacity="1" data-original="#000000" class=""></path></g></svg>
