<svg xmlns="http://www.w3.org/2000/svg" version="1.1" xmlns:xlink="http://www.w3.org/1999/xlink" width="512" height="512" x="0" y="0" viewBox="0 0 512.714 512.714" style="enable-background:new 0 0 512 512" xml:space="preserve" class=""><g><path d="M504.577 294.14a7.5 7.5 0 0 0 7.5-7.5v-38.87c0-10.721-8.722-19.443-19.443-19.443h-46.251V73.856c0-10.721-8.722-19.443-19.443-19.443h-43.516c-4.142 0-7.5 3.357-7.5 7.5s3.358 7.5 7.5 7.5h43.516a4.448 4.448 0 0 1 4.443 4.443v154.47h-21.419V195.27c0-8.417-6.848-15.265-15.265-15.265h-19.491c-8.417 0-15.265 6.848-15.265 15.265v33.057h-82.671c-10.721 0-19.443 8.723-19.443 19.443v10.843H85.116a4.448 4.448 0 0 1-4.443-4.443V73.856a4.448 4.448 0 0 1 4.443-4.443H351.46c4.142 0 7.5-3.357 7.5-7.5s-3.358-7.5-7.5-7.5h-67.59V16.521C283.87 7.411 276.458 0 267.349 0h-22.643c-9.11 0-16.521 7.411-16.521 16.521v37.893H85.116c-10.721 0-19.443 8.723-19.443 19.443v88.28C26.565 178.54.637 217.167.637 259.91c0 50.114 34.956 92.214 81.764 103.206v141.099c0 4.143 3.358 7.5 7.5 7.5s7.5-3.357 7.5-7.5V365.508c3.047.264 6.127.407 9.241.407 3.112 0 6.193-.143 9.241-.408v30.266c0 4.143 3.358 7.5 7.5 7.5s7.5-3.357 7.5-7.5v-32.669c42.29-9.95 75.165-45.335 80.871-89.491h16.43v231.602c0 4.143 3.358 7.5 7.5 7.5s7.5-3.357 7.5-7.5V273.612h14.643v83.859c0 7.709 4.522 14.365 11.042 17.508v130.234c0 4.143 3.358 7.5 7.5 7.5s7.5-3.357 7.5-7.5V376.915h76.072v127.299c0 4.143 3.358 7.5 7.5 7.5s7.5-3.357 7.5-7.5V376.915h20.021v127.299c0 4.143 3.358 7.5 7.5 7.5s7.5-3.357 7.5-7.5V376.915h82.671c10.721 0 19.443-8.723 19.443-19.443v-38.87c0-4.143-3.358-7.5-7.5-7.5s-7.5 3.357-7.5 7.5v38.87a4.448 4.448 0 0 1-4.443 4.443H277.271a4.448 4.448 0 0 1-4.443-4.443V247.77a4.448 4.448 0 0 1 4.443-4.443h215.363a4.448 4.448 0 0 1 4.443 4.443v38.87a7.5 7.5 0 0 0 7.5 7.5zM243.185 16.521c0-.839.682-1.521 1.521-1.521h22.643c.839 0 1.521.682 1.521 1.521v37.893h-25.685zM106.643 350.915c-50.181 0-91.005-40.825-91.005-91.006 0-34.542 19.719-65.96 50.036-81.275v75.535c0 10.721 8.722 19.443 19.443 19.443h111.482c-6.642 43.941-44.701 77.303-89.956 77.303zM374.942 195.27c0-.146.119-.265.265-.265h19.491c.146 0 .265.119.265.265v33.057h-20.021z" fill="#ffffff" opacity="1" data-original="#000000" class=""></path><path d="M123.384 420.235a7.5 7.5 0 0 0-7.5 7.5v76.479c0 4.143 3.358 7.5 7.5 7.5s7.5-3.357 7.5-7.5v-76.479a7.5 7.5 0 0 0-7.5-7.5z" fill="#ffffff" opacity="1" data-original="#000000" class=""></path></g></svg>
