<svg xmlns="http://www.w3.org/2000/svg" version="1.1" xmlns:xlink="http://www.w3.org/1999/xlink" width="512" height="512" x="0" y="0" viewBox="0 0 682.667 682.667" style="enable-background:new 0 0 512 512" xml:space="preserve"><g><defs><clipPath id="a" clipPathUnits="userSpaceOnUse"><path d="M0 512h512V0H0Z" fill="#71090f" opacity="1" data-original="#000000"></path></clipPath></defs><g clip-path="url(#a)" transform="matrix(1.33333 0 0 -1.33333 0 682.667)"><path d="M0 0c-26.047 0-47.163-21.116-47.163-47.163 0-26.047 21.116-47.163 47.163-47.163 26.047 0 47.163 21.116 47.163 47.163C47.163-21.116 26.047 0 0 0Z" style="stroke-width:15;stroke-linecap:round;stroke-linejoin:round;stroke-miterlimit:10;stroke-dasharray:none;stroke-opacity:1" transform="translate(54.664 153.756)" fill="none" stroke="#71090f" stroke-width="15" stroke-linecap="round" stroke-linejoin="round" stroke-miterlimit="10" stroke-dasharray="none" stroke-opacity="" data-original="#000000" opacity="1"></path><path d="M0 0c-26.047 0-47.163-21.116-47.163-47.163 0-26.047 21.116-47.163 47.163-47.163 26.047 0 47.163 21.116 47.163 47.163C47.163-21.116 26.047 0 0 0Z" style="stroke-width:15;stroke-linecap:round;stroke-linejoin:round;stroke-miterlimit:10;stroke-dasharray:none;stroke-opacity:1" transform="translate(148.99 153.756)" fill="none" stroke="#71090f" stroke-width="15" stroke-linecap="round" stroke-linejoin="round" stroke-miterlimit="10" stroke-dasharray="none" stroke-opacity="" data-original="#000000" opacity="1"></path><path d="M0 0c-26.047 0-47.163-21.116-47.163-47.163 0-26.047 21.116-47.163 47.163-47.163 26.047 0 47.162 21.116 47.162 47.163C47.162-21.116 26.047 0 0 0Z" style="stroke-width:15;stroke-linecap:round;stroke-linejoin:round;stroke-miterlimit:10;stroke-dasharray:none;stroke-opacity:1" transform="translate(243.315 153.756)" fill="none" stroke="#71090f" stroke-width="15" stroke-linecap="round" stroke-linejoin="round" stroke-miterlimit="10" stroke-dasharray="none" stroke-opacity="" data-original="#000000" opacity="1"></path><path d="M0 0c-26.047 0-47.163-21.115-47.163-47.163 0-26.047 21.116-47.162 47.163-47.162 26.047 0 47.163 21.115 47.163 47.162C47.163-21.115 26.047 0 0 0Z" style="stroke-width:15;stroke-linecap:round;stroke-linejoin:round;stroke-miterlimit:10;stroke-dasharray:none;stroke-opacity:1" transform="translate(101.826 235.473)" fill="none" stroke="#71090f" stroke-width="15" stroke-linecap="round" stroke-linejoin="round" stroke-miterlimit="10" stroke-dasharray="none" stroke-opacity="" data-original="#000000" opacity="1"></path><path d="M0 0c-26.047 0-47.163-21.115-47.163-47.163 0-26.047 21.116-47.162 47.163-47.162 26.047 0 47.163 21.115 47.163 47.162C47.163-21.115 26.047 0 0 0Z" style="stroke-width:15;stroke-linecap:round;stroke-linejoin:round;stroke-miterlimit:10;stroke-dasharray:none;stroke-opacity:1" transform="translate(196.152 235.473)" fill="none" stroke="#71090f" stroke-width="15" stroke-linecap="round" stroke-linejoin="round" stroke-miterlimit="10" stroke-dasharray="none" stroke-opacity="" data-original="#000000" opacity="1"></path><path d="M0 0h-214.022c26.047 0 47.163-21.116 47.163-47.163 0-17.354-9.38-32.508-23.339-40.698l.02-.026a46.901 46.901 0 0 0 23.319 6.17H32.085c9.27 8.612 15.078 20.903 15.078 34.554C47.163-21.116 26.047 0 0 0Z" style="stroke-width:15;stroke-linecap:round;stroke-linejoin:round;stroke-miterlimit:10;stroke-dasharray:none;stroke-opacity:1" transform="translate(410.174 235.473)" fill="none" stroke="#71090f" stroke-width="15" stroke-linecap="round" stroke-linejoin="round" stroke-miterlimit="10" stroke-dasharray="none" stroke-opacity="" data-original="#000000" opacity="1"></path><path d="M0 0v0h-94.326c26.048 0 47.163-21.116 47.163-47.163C-47.163-21.116-26.047 0 0 0Z" style="stroke-width:15;stroke-linecap:round;stroke-linejoin:round;stroke-miterlimit:10;stroke-dasharray:none;stroke-opacity:1" transform="translate(196.152 235.473)" fill="none" stroke="#71090f" stroke-width="15" stroke-linecap="round" stroke-linejoin="round" stroke-miterlimit="10" stroke-dasharray="none" stroke-opacity="" data-original="#000000" opacity="1"></path><path d="M0 0c0-26.047-21.115-47.163-47.163-47.163h94.326C21.116-47.163 0-26.047 0 0Z" style="stroke-width:15;stroke-linecap:round;stroke-linejoin:round;stroke-miterlimit:10;stroke-dasharray:none;stroke-opacity:1" transform="translate(101.826 106.593)" fill="none" stroke="#71090f" stroke-width="15" stroke-linecap="round" stroke-linejoin="round" stroke-miterlimit="10" stroke-dasharray="none" stroke-opacity="" data-original="#000000" opacity="1"></path><path d="M0 0c0-26.047-21.115-47.163-47.163-47.163h94.326C21.116-47.163 0-26.047 0 0Z" style="stroke-width:15;stroke-linecap:round;stroke-linejoin:round;stroke-miterlimit:10;stroke-dasharray:none;stroke-opacity:1" transform="translate(196.152 106.593)" fill="none" stroke="#71090f" stroke-width="15" stroke-linecap="round" stroke-linejoin="round" stroke-miterlimit="10" stroke-dasharray="none" stroke-opacity="" data-original="#000000" opacity="1"></path><path d="M0 0h20.06" style="stroke-width:15;stroke-linecap:round;stroke-linejoin:round;stroke-miterlimit:10;stroke-dasharray:none;stroke-opacity:1" transform="translate(315.82 127.161)" fill="none" stroke="#71090f" stroke-width="15" stroke-linecap="round" stroke-linejoin="round" stroke-miterlimit="10" stroke-dasharray="none" stroke-opacity="" data-original="#000000" opacity="1"></path><path d="M0 0h20.059" style="stroke-width:15;stroke-linecap:round;stroke-linejoin:round;stroke-miterlimit:10;stroke-dasharray:none;stroke-opacity:1" transform="translate(268.306 209.935)" fill="none" stroke="#71090f" stroke-width="15" stroke-linecap="round" stroke-linejoin="round" stroke-miterlimit="10" stroke-dasharray="none" stroke-opacity="" data-original="#000000" opacity="1"></path><path d="M0 0v20.06" style="stroke-width:15;stroke-linecap:round;stroke-linejoin:round;stroke-miterlimit:10;stroke-dasharray:none;stroke-opacity:1" transform="translate(369.876 378.095)" fill="none" stroke="#71090f" stroke-width="15" stroke-linecap="round" stroke-linejoin="round" stroke-miterlimit="10" stroke-dasharray="none" stroke-opacity="" data-original="#000000" opacity="1"></path><path d="M0 0v20.059" style="stroke-width:15;stroke-linecap:round;stroke-linejoin:round;stroke-miterlimit:10;stroke-dasharray:none;stroke-opacity:1" transform="translate(275.699 269.483)" fill="none" stroke="#71090f" stroke-width="15" stroke-linecap="round" stroke-linejoin="round" stroke-miterlimit="10" stroke-dasharray="none" stroke-opacity="" data-original="#000000" opacity="1"></path><path d="M0 0c0-7.437-21.115-13.466-47.162-13.466-26.048 0-47.163 6.029-47.163 13.466 0 7.437 21.115 13.466 47.163 13.466C-21.115 13.466 0 7.437 0 0Z" style="stroke-width:15;stroke-linecap:round;stroke-linejoin:round;stroke-miterlimit:10;stroke-dasharray:none;stroke-opacity:1" transform="translate(398.751 439.103)" fill="none" stroke="#71090f" stroke-width="15" stroke-linecap="round" stroke-linejoin="round" stroke-miterlimit="10" stroke-dasharray="none" stroke-opacity="" data-original="#000000" opacity="1"></path><path d="M0 0c0-7.437-21.115-13.466-47.163-13.466-26.047 0-47.163 6.029-47.163 13.466 0 7.437 21.116 13.466 47.163 13.466C-21.115 13.466 0 7.437 0 0Z" style="stroke-width:15;stroke-linecap:round;stroke-linejoin:round;stroke-miterlimit:10;stroke-dasharray:none;stroke-opacity:1" transform="translate(304.657 330.555)" fill="none" stroke="#71090f" stroke-width="15" stroke-linecap="round" stroke-linejoin="round" stroke-miterlimit="10" stroke-dasharray="none" stroke-opacity="" data-original="#000000" opacity="1"></path><path d="M0 0c-26.047 0-47.163 6.029-47.163 13.466v-95.082h94.326v95.082C47.163 6.029 26.048 0 0 0Z" style="stroke-width:15;stroke-linecap:round;stroke-linejoin:round;stroke-miterlimit:10;stroke-dasharray:none;stroke-opacity:1" transform="translate(257.494 317.089)" fill="none" stroke="#71090f" stroke-width="15" stroke-linecap="round" stroke-linejoin="round" stroke-miterlimit="10" stroke-dasharray="none" stroke-opacity="" data-original="#000000" opacity="1"></path><path d="M0 0h62.013c26.047 0 47.162 21.115 47.162 47.163 0 26.047-21.115 47.163-47.162 47.163H-152.01c26.047 0 47.162-21.116 47.162-47.163C-104.848 21.115-125.963 0-152.01 0H-35" style="stroke-width:15;stroke-linecap:round;stroke-linejoin:round;stroke-miterlimit:10;stroke-dasharray:none;stroke-opacity:1" transform="translate(395.325 59.43)" fill="none" stroke="#71090f" stroke-width="15" stroke-linecap="round" stroke-linejoin="round" stroke-miterlimit="10" stroke-dasharray="none" stroke-opacity="" data-original="#000000" opacity="1"></path><path d="M0 0v91.048c0-7.437-21.115-13.466-47.162-13.466-26.048 0-47.163 6.029-47.163 13.466v-203.63H0V-35" style="stroke-width:15;stroke-linecap:round;stroke-linejoin:round;stroke-miterlimit:10;stroke-dasharray:none;stroke-opacity:1" transform="translate(398.751 348.055)" fill="none" stroke="#71090f" stroke-width="15" stroke-linecap="round" stroke-linejoin="round" stroke-miterlimit="10" stroke-dasharray="none" stroke-opacity="" data-original="#000000" opacity="1"></path></g></g></svg>
