<svg xmlns="http://www.w3.org/2000/svg" version="1.1" xmlns:xlink="http://www.w3.org/1999/xlink" width="512" height="512" x="0" y="0" viewBox="0 0 74 74" style="enable-background:new 0 0 512 512" xml:space="preserve" class="hovered-paths"><g><path d="M71 68.946H3a1 1 0 0 1-1-1v-24.68a1 1 0 0 1 1-1h68a1 1 0 0 1 1 1v24.68a1 1 0 0 1-1 1zm-67-2h66v-22.68H4z" fill="#71090f" opacity="1" data-original="#000000" class="hovered-path"></path><path d="M37 68.95a1 1 0 0 1-1-1V43.262a1 1 0 0 1 2 0V67.95a1 1 0 0 1-1 1zM41.539 61.34a1 1 0 0 1-1-1v-9.114a1 1 0 0 1 2 0v9.114a1 1 0 0 1-1 1zM32.457 61.34a1 1 0 0 1-1-1v-9.114a1 1 0 0 1 2 0v9.114a1 1 0 0 1-1 1zM63.182 44.262H47.026a1 1 0 0 1-1-1V39.64a1 1 0 0 1 1-1h16.156a1 1 0 0 1 1 1v3.622a1 1 0 0 1-1 1zm-15.156-2h14.156V40.64H48.026z" fill="#71090f" opacity="1" data-original="#000000" class="hovered-path"></path><path d="M59.7 40.645h-9.182a1 1 0 0 1-1-1V36.39a1 1 0 0 1 1-1H53.3a1 1 0 0 1 0 2h-1.78v1.255h7.18V37.39h-1.78a1 1 0 0 1 0-2h2.78a1 1 0 0 1 1 1v3.255a1 1 0 0 1-1 1zM26.97 44.262H10.814a1 1 0 0 1-1-1V39.64a1 1 0 0 1 1-1H26.97a1 1 0 0 1 1 1v3.622a1 1 0 0 1-1 1zm-15.156-2H25.97V40.64H11.814z" fill="#71090f" opacity="1" data-original="#000000" class="hovered-path"></path><path d="M23.479 40.645H14.3a1 1 0 0 1-1-1V36.39a1 1 0 0 1 1-1h2.781a1 1 0 1 1 0 2H15.3v1.255h7.179V37.39H20.7a1 1 0 0 1 0-2h2.781a1 1 0 0 1 1 1v3.255a1 1 0 0 1-1.002 1zM56.45 7.06h-2.9a1 1 0 0 1 0-2h2.9a1 1 0 0 1 0 2z" fill="#71090f" opacity="1" data-original="#000000" class="hovered-path"></path><path d="M71 27.78H3a1 1 0 0 1-1-1V6.06a1 1 0 0 1 1-1h43.55a1 1 0 0 1 0 2H4v18.72h66V7.06h-6.55a1 1 0 0 1 0-2H71a1 1 0 0 1 1 1v20.72a1 1 0 0 1-1 1z" fill="#71090f" opacity="1" data-original="#000000" class="hovered-path"></path><path d="M37 27.781a1 1 0 0 1-1-1V6.05a1 1 0 1 1 2 0v20.731a1 1 0 0 1-1 1zM58.707 22.836H51.5a1 1 0 1 1 0-2h7.206a1 1 0 1 1 0 2zM22.5 22.836h-7.211a1 1 0 0 1 0-2H22.5a1 1 0 1 1 0 2z" fill="#71090f" opacity="1" data-original="#000000" class="hovered-path"></path></g></svg>
