<svg xmlns="http://www.w3.org/2000/svg" version="1.1" xmlns:xlink="http://www.w3.org/1999/xlink" width="512" height="512" x="0" y="0" viewBox="0 0 128 128" style="enable-background:new 0 0 512 512" xml:space="preserve" class=""><g><path d="M86.784 58.58A22.786 22.786 0 1 0 64 81.37a22.812 22.812 0 0 0 22.784-22.79ZM64 77.865a19.09 19.09 0 0 1-10.987-3.46 11.128 11.128 0 0 1 6.382-9.543 9.216 9.216 0 0 0 9.243-.017 10.906 10.906 0 0 1 6.347 9.562A19.048 19.048 0 0 1 64 77.865ZM64 62.6a5.792 5.792 0 1 1 5.792-5.791A5.811 5.811 0 0 1 64 62.6Zm-19.287-4.02a19.286 19.286 0 1 1 38.571 0 19.108 19.108 0 0 1-5.135 13.1 14.337 14.337 0 0 0-6.724-9.315A9.291 9.291 0 1 0 56.6 62.4a14.672 14.672 0 0 0-6.736 9.3 19.106 19.106 0 0 1-5.151-13.12ZM30.225 27.076l-.135 5.532a1.75 1.75 0 0 0 2.331 1.692l5.22-1.838L42.86 34.3a1.75 1.75 0 0 0 2.331-1.693l-.135-5.532 3.36-4.4a1.749 1.749 0 0 0-.89-2.74l-5.3-1.582-3.145-4.553a1.749 1.749 0 0 0-2.881 0l-3.142 4.554-5.3 1.582a1.749 1.749 0 0 0-.89 2.74Zm4.423-5.539a1.751 1.751 0 0 0 .94-.684l2.053-2.974 2.051 2.974a1.758 1.758 0 0 0 .941.684l3.467 1.032-2.2 2.871a1.746 1.746 0 0 0-.359 1.105l.088 3.612-3.408-1.2a1.754 1.754 0 0 0-1.162 0l-3.409 1.2.088-3.612a1.746 1.746 0 0 0-.359-1.105l-2.2-2.871ZM82.941 27.076l-.134 5.531a1.749 1.749 0 0 0 2.33 1.694l5.219-1.838 5.22 1.838a1.75 1.75 0 0 0 2.33-1.693l-.134-5.532 3.361-4.4a1.75 1.75 0 0 0-.891-2.739l-5.3-1.582L91.8 13.8a1.815 1.815 0 0 0-2.881 0l-3.143 4.554-5.3 1.582a1.751 1.751 0 0 0-.891 2.74Zm4.423-5.539a1.762 1.762 0 0 0 .941-.684l2.051-2.974 2.052 2.974a1.762 1.762 0 0 0 .941.684l3.462 1.032-2.194 2.871a1.745 1.745 0 0 0-.358 1.105l.087 3.612-3.409-1.2a1.748 1.748 0 0 0-1.162 0l-3.408 1.2.088-3.612a1.745 1.745 0 0 0-.355-1.105l-2.2-2.871ZM56.583 19.975l-.135 5.532a1.75 1.75 0 0 0 2.331 1.693L64 25.363l5.22 1.837a1.75 1.75 0 0 0 2.33-1.693l-.134-5.532 3.361-4.4a1.751 1.751 0 0 0-.89-2.741l-5.3-1.581L65.438 6.7a1.815 1.815 0 0 0-2.88 0l-3.143 4.554-5.3 1.581a1.75 1.75 0 0 0-.89 2.741Zm4.423-5.54a1.744 1.744 0 0 0 .94-.683L64 10.778l2.053 2.974a1.744 1.744 0 0 0 .94.683l3.463 1.033-2.195 2.87a1.756 1.756 0 0 0-.359 1.106l.087 3.613-3.407-1.2a1.757 1.757 0 0 0-1.163 0l-3.408 1.2.088-3.613a1.75 1.75 0 0 0-.359-1.106l-2.2-2.87ZM53 105.849h-2.7V94.84a13.264 13.264 0 0 0-4.56-10.019L32.97 73.7l-.561-15.754a5.745 5.745 0 0 0-8.016-5.1 6.023 6.023 0 0 0-11.924 1.344c.1 4.238.41 15.37 1.244 27.174.815 11.49 7.694 20.131 12.011 24.485h-2.87a1.75 1.75 0 0 0-1.75 1.75v12.7a1.75 1.75 0 0 0 1.75 1.75H53a1.75 1.75 0 0 0 1.75-1.75V107.6a1.75 1.75 0 0 0-1.75-1.751ZM26.65 55.87a2.253 2.253 0 0 1 2.261 2.193l.5 13.948a6.534 6.534 0 0 0-3.923.575l-.792-15.56a2.258 2.258 0 0 1 1.954-1.156ZM17.2 81.117c-.828-11.728-1.141-22.794-1.236-27.011a2.533 2.533 0 0 1 5.063-.187l1.13 22.2a6.742 6.742 0 0 0 1.795 7.64l13.95 12.21a1.75 1.75 0 0 0 2.3-2.634L26.264 81.126a3.256 3.256 0 0 1-.3-4.605 3.241 3.241 0 0 1 4.579-.289L43.44 87.461a9.768 9.768 0 0 1 3.36 7.379v11H30.878C28.589 103.926 18.153 94.5 17.2 81.117Zm34.05 37.436H24.6v-9.2h26.65ZM114.287 81.364c.834-11.8 1.148-22.936 1.243-27.17a6.022 6.022 0 0 0-11.923-1.355 5.745 5.745 0 0 0-8.016 5.1L95.03 73.7 82.263 84.819A13.271 13.271 0 0 0 77.7 94.84v11.009h-2.707a1.749 1.749 0 0 0-1.75 1.75v12.7a1.749 1.749 0 0 0 1.75 1.75h30.15a1.75 1.75 0 0 0 1.75-1.75V107.6a1.75 1.75 0 0 0-1.75-1.75h-2.868c4.317-4.35 11.197-12.996 12.012-24.486Zm-10.894 37.189h-26.65v-9.2h26.65ZM101.35 55.87a2.253 2.253 0 0 1 1.956 1.156l-.791 15.559a6.546 6.546 0 0 0-3.923-.574l.5-13.954a2.252 2.252 0 0 1 2.258-2.187ZM81.2 94.84a9.775 9.775 0 0 1 3.359-7.381l12.894-11.231a3.243 3.243 0 0 1 4.574.287l.01.013a3.254 3.254 0 0 1-.3 4.595l-13.95 12.21a1.75 1.75 0 0 0 2.3 2.634l13.954-12.213a6.742 6.742 0 0 0 1.792-7.637l1.13-22.2a2.532 2.532 0 0 1 5.061.188c-.095 4.213-.406 15.278-1.236 27.006-.946 13.346-11.387 22.8-13.675 24.724H81.2Z" fill="#71090f" opacity="1" data-original="#000000" class=""></path></g></svg>
